:FULLY-SPECIFIED
:FORCE-ALL-JOINTS-BE-3DOF
:DEGREES
102
root -2.84723 16.4957 -36.2101 2.83981 0.359058 -2.37769
lfemur -21.2092 6.09886 -9.00861
ltibia 44.9021 0 0
lfoot -21.7729 -0.411996 0
ltoes -7.35203 0 0
rfemur -21.5564 -5.91858 13.8908
rtibia 47.4834 0 0
rfoot -25.6681 1.43559 0
rtoes -6.51236 0 0
lowerback 8.36296 1.95246 -1.61533
upperback -3.49182 2.52822 1.21855
thorax -8.52498 1.35947 1.80291
lowerneck -2.3842 -3.8783 -6.61537
upperneck 5.29125 -5.23038 5.98238
head 2.50513 -2.59155 2.96903
lclavicle -5.44601e-16 8.73225e-15 0
lhumerus -26.5577 -4.0829 89.4069
lradius 24.9867 0 0
lwrist -30.5214 0 0
lhand -28.6712 30.4138 0
lfingers 7.12502 0 0
lthumb -2.03412 60.3838 0
rclavicle -5.44601e-16 8.73225e-15 0
rhumerus -32.5425 3.08241 -80.5574
rradius 30.7366 0 0
rwrist 2.44454 0 0
rhand -19.8022 -27.1389 0
rfingers 7.12502 0 0
rthumb 6.53084 -57.0196 0
103
root -2.84554 16.4954 -36.2088 2.86915 0.362101 -2.38924
lfemur -21.2407 6.08252 -9.0038
ltibia 44.9112 0 0
lfoot -21.7829 -0.3797 0
ltoes -7.41974 0 0
rfemur -21.5819 -5.92779 13.8985
rtibia 47.4802 0 0
rfoot -25.6716 1.44829 0
rtoes -6.53549 0 0
lowerback 8.31993 1.95218 -1.62668
upperback -3.50714 2.52722 1.22052
thorax -8.51705 1.35984 1.81258
lowerneck -2.3895 -3.87865 -6.61341
upperneck 5.31774 -5.23187 5.98691
head 2.51521 -2.5921 2.97015
lclavicle -4.10151e-16 9.42459e-15 0
lhumerus -26.5545 -4.0703 89.4024
lradius 24.9917 0 0
lwrist -30.5219 0 0
lhand -28.6634 30.4255 0
lfingers 7.12502 0 0
lthumb -2.02665 60.3956 0
rclavicle -4.10151e-16 9.42459e-15 0
rhumerus -32.5486 3.06469 -80.5612
rradius 30.733 0 0
rwrist 2.44889 0 0
rhand -19.7987 -27.1511 0
rfingers 7.12502 0 0
rthumb 6.5342 -57.0317 0
104
root -2.84392 16.4952 -36.2075 2.89793 0.36453 -2.4009
lfemur -21.2708 6.06477 -8.99864
ltibia 44.9186 0 0
lfoot -21.7921 -0.345069 0
ltoes -7.49099 0 0
rfemur -21.6067 -5.9363 13.9066
rtibia 47.4758 0 0
rfoot -25.6744 1.46158 0
rtoes -6.5591 0 0
lowerback 8.27818 1.95209 -1.63829
upperback -3.52209 2.52642 1.22257
thorax -8.50949 1.36033 1.8224
lowerneck -2.39588 -3.8789 -6.6115
upperneck 5.3442 -5.23319 5.99172
head 2.52548 -2.59254 2.97136
lclavicle -2.77438e-16 1.01021e-14 0
lhumerus -26.5515 -4.0571 89.3981
lradius 24.9968 0 0
lwrist -30.5226 0 0
lhand -28.6557 30.4366 0
lfingers 7.12502 0 0
lthumb -2.01916 60.4067 0
rclavicle -2.77438e-16 1.01021e-14 0
rhumerus -32.5546 3.04617 -80.5645
rradius 30.7288 0 0
rwrist 2.45398 0 0
rhand -19.7966 -27.1629 0
rfingers 7.12502 0 0
rthumb 6.53622 -57.0433 0
105
root -2.84236 16.495 -36.2063 2.92628 0.366445 -2.41267
lfemur -21.2998 6.04586 -8.99317
ltibia 44.9248 0 0
lfoot -21.8006 -0.308408 0
ltoes -7.56535 0 0
rfemur -21.6309 -5.94431 13.915
rtibia 47.4706 0 0
rfoot -25.6765 1.47538 0
rtoes -6.58325 0 0
lowerback 8.23752 1.95215 -1.6501
upperback -3.5367 2.52579 1.22469
thorax -8.50222 1.36091 1.83236
lowerneck -2.40329 -3.87907 -6.60964
upperneck 5.3707 -5.23433 5.99677
head 2.53596 -2.59287 2.97267
lclavicle -1.4817e-16 1.07632e-14 0
lhumerus -26.5485 -4.04309 89.3938
lradius 25.0017 0 0
lwrist -30.5235 0 0
lhand -28.6479 30.447 0
lfingers 7.12502 0 0
lthumb -2.01163 60.4173 0
rclavicle -1.4817e-16 1.07632e-14 0
rhumerus -32.5604 3.02684 -80.5672
rradius 30.7241 0 0
rwrist 2.45983 0 0
rhand -19.7958 -27.1742 0
rfingers 7.12502 0 0
rthumb 6.53701 -57.0546 0
106
root -2.84086 16.4948 -36.2052 2.9543 0.367945 -2.42454
lfemur -21.328 6.02606 -8.98739
ltibia 44.9302 0 0
lfoot -21.8086 -0.270021 0
ltoes -7.64234 0 0
rfemur -21.6548 -5.95198 13.9237
rtibia 47.465 0 0
rfoot -25.6784 1.4896 0
rtoes -6.60799 0 0
lowerback 8.19777 1.95236 -1.66207
upperback -3.55103 2.52532 1.22687
thorax -8.4952 1.36156 1.84241
lowerneck -2.41165 -3.87915 -6.60782
upperneck 5.3973 -5.23533 6.00202
head 2.54665 -2.59311 2.97404
lclavicle -2.40564e-17 1.14062e-14 0
lhumerus -26.5458 -4.02807 89.3894
lradius 25.0064 0 0
lwrist -30.5247 0 0
lhand -28.64 30.4569 0
lfingers 7.12502 0 0
lthumb -2.00404 60.4272 0
rclavicle -2.40564e-17 1.14062e-14 0
rhumerus -32.5662 3.00667 -80.5691
rradius 30.7188 0 0
rwrist 2.46643 0 0
rhand -19.796 -27.185 0
rfingers 7.12502 0 0
rthumb 6.53673 -57.0653 0
107
root -2.83941 16.4946 -36.2041 2.98212 0.369129 -2.43651
lfemur -21.3559 6.00561 -8.98133
ltibia 44.9354 0 0
lfoot -21.8164 -0.230212 0
ltoes -7.72153 0 0
rfemur -21.6788 -5.95951 13.9327
rtibia 47.4593 0 0
rfoot -25.6801 1.50416 0
rtoes -6.63337 0 0
lowerback 8.15873 1.95268 -1.67412
upperback -3.56514 2.52497 1.2291
thorax -8.48837 1.36229 1.85252
lowerneck -2.42087 -3.87916 -6.60603
upperneck 5.42411 -5.23619 6.00743
head 2.55757 -2.59327 2.97547
lclavicle 9.31937e-17 1.20296e-14 0
lhumerus -26.5432 -4.01182 89.3848
lradius 25.0107 0 0
lwrist -30.5264 0 0
lhand -28.6321 30.466 0
lfingers 7.12502 0 0
lthumb -1.99637 60.4364 0
rclavicle 9.31937e-17 1.20296e-14 0
rhumerus -32.572 2.98564 -80.5703
rradius 30.7128 0 0
rwrist 2.4738 0 0
rhand -19.7973 -27.1953 0
rfingers 7.12502 0 0
rthumb 6.5355 -57.0755 0
108
root -2.83801 16.4944 -36.203 3.00986 0.370097 -2.44858
lfemur -21.3838 5.98479 -8.975
ltibia 44.9407 0 0
lfoot -21.8242 -0.189285 0
ltoes -7.80245 0 0
rfemur -21.7029 -5.96705 13.942
rtibia 47.4539 0 0
rfoot -25.682 1.51897 0
rtoes -6.65944 0 0
lowerback 8.12021 1.95309 -1.68621
upperback -3.57908 2.52473 1.23137
thorax -8.48167 1.36307 1.86266
lowerneck -2.4309 -3.87911 -6.60428
upperneck 5.45119 -5.23694 6.01295
head 2.56873 -2.59335 2.97694
lclavicle 2.01871e-16 1.26319e-14 0
lhumerus -26.5408 -3.99414 89.3799
lradius 25.0145 0 0
lwrist -30.5287 0 0
lhand -28.624 30.4746 0
lfingers 7.12502 0 0
lthumb -1.98859 60.445 0
rclavicle 2.01871e-16 1.26319e-14 0
rhumerus -32.5776 2.96371 -80.5707
rradius 30.7063 0 0
rwrist 2.48193 0 0
rhand -19.7994 -27.205 0
rfingers 7.12502 0 0
rthumb 6.53345 -57.0852 0
